<svg id="Layer_1" data-name="Layer 1" xmlns="http://www.w3.org/2000/svg" viewBox="0 0 257.45 250.32">
  <defs>
    <style>
      .cls-1, .cls-2, .cls-3, .cls-4, .cls-5 {
        fill: #fff;
      }

      .cls-2, .cls-3, .cls-4, .cls-5, .cls-6 {
        stroke: #3d4752;
        stroke-miterlimit: 10;
      }

      .cls-2 {
        stroke-width: 2.73px;
      }

      .cls-3 {
        stroke-width: 2.6px;
      }

      .cls-4, .cls-6 {
        stroke-width: 2.9px;
      }

      .cls-5 {
        stroke-width: 3.34px;
      }

      .cls-6 {
        fill: #3d4752;
      }
    </style>
  </defs>
  <title>featured-floorplan</title>
  <g>
    <polygon class="cls-1" points="29.84 34.61 57.79 8.92 63.92 2.13 69.86 8.73 75.28 21.17 76.46 33.47 29.84 34.61"/>
    <path class="cls-2" d="M76.47,26.27h178.1a1.82,1.82,0,0,1,1.82,1.82V247.44a1.82,1.82,0,0,1-1.82,1.82H3.49a1.82,1.82,0,0,1-1.82-1.82V28.09a1.82,1.82,0,0,1,1.82-1.82H40.4" transform="translate(-0.31 -0.3)"/>
    <path class="cls-3" d="M75.43,31.74H249.54a1.74,1.74,0,0,1,1.74,1.73V242.06a1.74,1.74,0,0,1-1.74,1.73H9.17a1.74,1.74,0,0,1-1.74-1.73V33.47a1.74,1.74,0,0,1,1.74-1.73H35.56" transform="translate(-0.31 -0.3)"/>
    <g>
      <rect class="cls-4" x="76.56" y="220.34" width="145.06" height="14.45"/>
      <path class="cls-4" d="M225.14,238.66h-49a.87.87,0,0,1-.93-.78v-6.63a.91.91,0,0,1,.93-.78h49a.76.76,0,0,1,.78.78v6.63A.73.73,0,0,1,225.14,238.66Z" transform="translate(-0.31 -0.3)"/>
      <path class="cls-4" d="M225.14,238.66h-49a.87.87,0,0,1-.93-.78v-6.63a.91.91,0,0,1,.93-.78h49a.76.76,0,0,1,.78.78v6.63A.73.73,0,0,1,225.14,238.66Z" transform="translate(-0.31 -0.3)"/>
      <path class="cls-4" d="M174,238.66H124.82a.73.73,0,0,1-.78-.78v-6.63a.76.76,0,0,1,.78-.78H174a.76.76,0,0,1,.78.78v6.63A.73.73,0,0,1,174,238.66Z" transform="translate(-0.31 -0.3)"/>
      <path class="cls-4" d="M174,238.66H124.82a.73.73,0,0,1-.78-.78v-6.63a.76.76,0,0,1,.78-.78H174a.76.76,0,0,1,.78.78v6.63A.73.73,0,0,1,174,238.66Z" transform="translate(-0.31 -0.3)"/>
      <path class="cls-4" d="M122.65,238.66h-49a.73.73,0,0,1-.78-.78v-6.63a.76.76,0,0,1,.78-.78h49a.91.91,0,0,1,.93.78v6.63A.87.87,0,0,1,122.65,238.66Z" transform="translate(-0.31 -0.3)"/>
      <path class="cls-4" d="M122.65,238.66h-49a.73.73,0,0,1-.78-.78v-6.63a.76.76,0,0,1,.78-.78h49a.91.91,0,0,1,.93.78v6.63A.87.87,0,0,1,122.65,238.66Z" transform="translate(-0.31 -0.3)"/>
      <path class="cls-4" d="M80,230V208c0-1.71-.78-3.16-1.86-3.16H74.9c-1.09,0-2,1.45-2,3.16v22Z" transform="translate(-0.31 -0.3)"/>
      <path class="cls-4" d="M80,230V208c0-1.71-.78-3.16-1.86-3.16H74.9c-1.09,0-2,1.45-2,3.16v22Z" transform="translate(-0.31 -0.3)"/>
      <path class="cls-4" d="M120.22,230H83.81A3.14,3.14,0,0,1,80.55,227V194.23a3.14,3.14,0,0,1,3.26-3.06h36.41a3.27,3.27,0,0,1,3.37,3.06V227A3.27,3.27,0,0,1,120.22,230Z" transform="translate(-0.31 -0.3)"/>
      <path class="cls-4" d="M120.22,230H83.81A3.14,3.14,0,0,1,80.55,227V194.23a3.14,3.14,0,0,1,3.26-3.06h36.41a3.27,3.27,0,0,1,3.37,3.06V227A3.27,3.27,0,0,1,120.22,230Z" transform="translate(-0.31 -0.3)"/>
      <path class="cls-4" d="M225.91,230V208c0-1.71-.78-3.16-1.86-3.16h-3.21c-1.09,0-2,1.45-2,3.16v22Z" transform="translate(-0.31 -0.3)"/>
      <path class="cls-4" d="M225.91,230V208c0-1.71-.78-3.16-1.86-3.16h-3.21c-1.09,0-2,1.45-2,3.16v22Z" transform="translate(-0.31 -0.3)"/>
      <path class="cls-4" d="M215,230H178.58a3.27,3.27,0,0,1-3.37-3.06V194.23a3.27,3.27,0,0,1,3.37-3.06H215a3.14,3.14,0,0,1,3.26,3.06V227A3.14,3.14,0,0,1,215,230Z" transform="translate(-0.31 -0.3)"/>
      <path class="cls-4" d="M215,230H178.58a3.27,3.27,0,0,1-3.37-3.06V194.23a3.27,3.27,0,0,1,3.37-3.06H215a3.14,3.14,0,0,1,3.26,3.06V227A3.14,3.14,0,0,1,215,230Z" transform="translate(-0.31 -0.3)"/>
      <path class="cls-4" d="M171.85,230h-44.9a2.9,2.9,0,0,1-2.9-2.74v-33.4a2.89,2.89,0,0,1,2.9-2.69h44.9a2.89,2.89,0,0,1,2.9,2.69v33.4A2.9,2.9,0,0,1,171.85,230Z" transform="translate(-0.31 -0.3)"/>
      <path class="cls-4" d="M171.85,230h-44.9a2.9,2.9,0,0,1-2.9-2.74v-33.4a2.89,2.89,0,0,1,2.9-2.69h44.9a2.89,2.89,0,0,1,2.9,2.69v33.4A2.9,2.9,0,0,1,171.85,230Z" transform="translate(-0.31 -0.3)"/>
    </g>
    <g>
      <rect class="cls-4" x="19.04" y="84.15" width="6.74" height="86.85" transform="translate(44.5 254.85) rotate(180)"/>
      <rect class="cls-4" x="17.76" y="84.21" width="11.81" height="86.9"/>
      <path class="cls-4" d="M14.19,173.53V129a.82.82,0,0,1,.73-.88h6.21a.86.86,0,0,1,.72.88v44.54a.71.71,0,0,1-.72.73H14.91A.68.68,0,0,1,14.19,173.53Z" transform="translate(-0.31 -0.3)"/>
      <path class="cls-4" d="M14.19,126.92V82.39a.82.82,0,0,1,.73-.88h6.21a.86.86,0,0,1,.72.88v44.54a.8.8,0,0,1-.72.83H14.91A.77.77,0,0,1,14.19,126.92Z" transform="translate(-0.31 -0.3)"/>
      <path class="cls-4" d="M22.27,174.26H43c1.61,0,3-.73,3-1.76v-2.9c0-1-1.35-1.86-3-1.86H22.27Z" transform="translate(-0.31 -0.3)"/>
      <path class="cls-4" d="M22.27,88H43c1.61,0,3-.73,3-1.76v-2.9c0-1-1.35-1.76-3-1.76H22.27V88Z" transform="translate(-0.31 -0.3)"/>
      <path class="cls-4" d="M22.27,164.31V131.22a3,3,0,0,1,2.9-3.11H55.87a3,3,0,0,1,2.9,3.11v33.09a3,3,0,0,1-2.9,3.06H25.17A3,3,0,0,1,22.27,164.31Z" transform="translate(-0.31 -0.3)"/>
      <path class="cls-4" d="M22.27,124.7V91.61a3,3,0,0,1,2.9-3.11H55.87a3,3,0,0,1,2.9,3.11V124.7a3,3,0,0,1-2.9,3.06H25.17A3,3,0,0,1,22.27,124.7Z" transform="translate(-0.31 -0.3)"/>
    </g>
    <path class="cls-5" d="M59.71,234.35c0,1.85-1.14,3.43-2.59,3.43H15.69c-1.45,0-2.59-1.58-2.59-3.43V189.07c0-1.92,1.14-3.43,2.59-3.43H57.12c1.45,0,2.59,1.51,2.59,3.43Z" transform="translate(-0.31 -0.3)"/>
    <path class="cls-3" d="M76.77,31.74A40.31,40.31,0,0,0,64.51,2.14m-29.94,30L65.43,1.22" transform="translate(-0.31 -0.3)"/>
    <path class="cls-4" d="M206.18,159.2a2.6,2.6,0,0,1-2.59,2.59H99.71a2.6,2.6,0,0,1-2.59-2.59V110.52a2.56,2.56,0,0,1,2.59-2.59H203.59a2.56,2.56,0,0,1,2.59,2.59Z" transform="translate(-0.31 -0.3)"/>
    <path class="cls-4" d="M95.57,38.34a2.85,2.85,0,0,1,2.8-2.8H204.93a2.81,2.81,0,0,1,2.8,2.8v28a2.78,2.78,0,0,1-2.8,2.8H98.37a2.81,2.81,0,0,1-2.8-2.8Z" transform="translate(-0.31 -0.3)"/>
    <path class="cls-3" d="M133.44,45.46h36.79c3,0,5.44,1.79,5.44,4V56c0,2.24-2.41,4-5.44,4H133.44c-3,0-5.44-1.74-5.44-4V49.44C128,47.26,130.41,45.46,133.44,45.46Z" transform="translate(-0.31 -0.3)"/>
    <polygon class="cls-6" points="114.73 55.71 188.31 55.71 195.66 59.69 107.39 59.69 114.73 55.71"/>
    <rect class="cls-6" x="132.06" y="53.07" width="38.92" height="2.52"/>
    <path class="cls-6" d="M151.83,47.82c-1.4,0-2.69.84-2.69,1.91a1.53,1.53,0,0,0,.45,1.07v2.47h4.49V50.79a1.53,1.53,0,0,0,.45-1.07C154.52,48.66,153.23,47.82,151.83,47.82Z" transform="translate(-0.31 -0.3)"/>
  </g>
</svg>
